<svg width="244" height="70" viewBox="0 0 244 70" fill="none" xmlns="http://www.w3.org/2000/svg">
<path d="M24.9518 44.7197C21.7638 44.7197 18.8007 44.1634 16.0623 43.0508C13.3239 41.897 10.9126 40.3106 8.82814 38.2915C6.74371 36.2312 5.10887 33.8617 3.92361 31.1833C2.77922 28.4636 2.20703 25.538 2.20703 22.4062C2.20703 19.2745 2.77922 16.3694 3.92361 13.691C5.10887 10.9714 6.72328 8.60198 8.76683 6.58284C10.8104 4.52251 13.2013 2.93604 15.9397 1.82346C18.7189 0.669668 21.6821 0.0927734 24.8291 0.0927734C28.3849 0.0927734 31.7364 0.813891 34.8834 2.25613C38.0304 3.65717 40.6258 5.63509 42.6693 8.18991L36.4774 13.9383C35.006 12.0839 33.2691 10.6829 31.2663 9.73516C29.2636 8.78741 27.1179 8.31353 24.8291 8.31353C22.9083 8.31353 21.1304 8.68439 19.4955 9.42611C17.8606 10.1266 16.4301 11.1156 15.204 12.393C13.9779 13.6292 13.0174 15.1126 12.3226 16.8433C11.6687 18.5328 11.3417 20.3871 11.3417 22.4062C11.3417 24.4254 11.6891 26.3003 12.3839 28.031C13.0787 29.7617 14.0392 31.2656 15.2653 32.5431C16.5324 33.7793 17.9832 34.7683 19.6181 35.51C21.2937 36.2105 23.1126 36.5608 25.0744 36.5608C27.1179 36.5608 28.9571 36.1899 30.592 35.4482C32.2269 34.6652 33.596 33.5939 34.6995 32.2341C35.8439 30.833 36.6 29.2672 36.9678 27.5365H33.5347V19.7484H46.4704V22.4681C46.4704 25.6822 45.9186 28.6491 44.8151 31.3687C43.7525 34.0471 42.2606 36.3959 40.3397 38.4151C38.4188 40.393 36.1505 41.9383 33.5347 43.0508C30.9189 44.1634 28.058 44.7197 24.9518 44.7197ZM52.5363 44.0398V0.772684H61.4258V44.0398H52.5363ZM69.2401 44.0398V0.772684H78.1295V18.2032H97.8702V0.772684H106.76V44.0398H97.8702V26.3003H78.1295V44.0398H69.2401ZM114.561 44.0398V0.772684H134.731C137.633 0.772684 140.167 1.26716 142.333 2.25613C144.499 3.24509 146.196 4.64613 147.422 6.45922C148.648 8.23112 149.261 10.2915 149.261 12.6402C149.261 14.5358 148.77 16.287 147.79 17.8941C146.849 19.4599 145.562 20.7374 143.927 21.7263C146.012 22.7153 147.667 24.0546 148.893 25.744C150.119 27.4334 150.732 29.3495 150.732 31.4923C150.732 33.9647 150.099 36.1486 148.832 38.0442C147.606 39.9398 145.848 41.4232 143.559 42.4945C141.311 43.5248 138.696 44.0398 135.712 44.0398H114.561ZM123.451 18.4504H134.179C136.1 18.4504 137.613 17.9972 138.716 17.0906C139.86 16.1429 140.433 14.886 140.433 13.3201C140.433 11.7543 139.86 10.5181 138.716 9.61154C137.613 8.66377 136.1 8.18991 134.179 8.18991H123.451V18.4504ZM123.451 36.6226H135.038C137.081 36.6226 138.716 36.1281 139.942 35.1391C141.168 34.1089 141.781 32.7491 141.781 31.0597C141.781 29.329 141.168 27.9692 139.942 26.9802C138.716 25.95 137.081 25.4349 135.038 25.4349H123.451V36.6226ZM177.378 44.7197C174.19 44.7197 171.228 44.1634 168.489 43.0508C165.751 41.897 163.339 40.3106 161.255 38.2915C159.212 36.2312 157.598 33.8617 156.411 31.1833C155.268 28.4636 154.695 25.538 154.695 22.4062C154.695 19.2745 155.268 16.3694 156.411 13.691C157.598 10.9714 159.212 8.60198 161.255 6.58284C163.339 4.52251 165.751 2.93604 168.489 1.82346C171.228 0.669668 174.19 0.0927734 177.378 0.0927734C180.566 0.0927734 183.53 0.669668 186.268 1.82346C189.048 2.93604 191.459 4.52251 193.502 6.58284C195.586 8.60198 197.202 10.9714 198.345 13.691C199.49 16.3694 200.062 19.2745 200.062 22.4062C200.062 25.538 199.49 28.4636 198.345 31.1833C197.202 33.8617 195.586 36.2312 193.502 38.2915C191.459 40.3106 189.048 41.897 186.268 43.0508C183.53 44.1634 180.566 44.7197 177.378 44.7197ZM177.378 36.499C179.34 36.499 181.139 36.1487 182.773 35.4482C184.409 34.7065 185.838 33.7175 187.065 32.4813C188.291 31.2038 189.252 29.6998 189.946 27.9692C190.642 26.2385 190.988 24.3842 190.988 22.4062C190.988 20.3871 190.642 18.5328 189.946 16.8433C189.252 15.1126 188.291 13.6292 187.065 12.393C185.838 11.1156 184.409 10.1266 182.773 9.42611C181.139 8.68439 179.34 8.31353 177.378 8.31353C175.458 8.31353 173.68 8.68439 172.045 9.42611C170.411 10.1266 168.979 11.1156 167.753 12.393C166.527 13.6292 165.567 15.1126 164.872 16.8433C164.177 18.5328 163.829 20.3665 163.829 22.3444C163.829 24.3636 164.177 26.2385 164.872 27.9692C165.567 29.6998 166.527 31.2038 167.753 32.4813C168.979 33.7175 170.411 34.7065 172.045 35.4482C173.68 36.1487 175.458 36.499 177.378 36.499ZM206.221 44.0398V0.772684H227.188C230.091 0.772684 232.645 1.34958 234.852 2.50337C237.1 3.61595 238.836 5.18181 240.063 7.20094C241.33 9.22008 241.963 11.5483 241.963 14.1855C241.963 16.9464 241.207 19.3775 239.695 21.4791C238.184 23.5806 236.16 25.1464 233.625 26.1767L243.128 44.0398H233.196L224.797 27.4747H215.111V44.0398H206.221ZM215.111 20.1193H226.391C228.394 20.1193 229.988 19.5835 231.173 18.5122C232.399 17.4409 233.012 16.0398 233.012 14.3091C233.012 12.5784 232.399 11.1774 231.173 10.106C229.988 9.03465 228.394 8.49896 226.391 8.49896H215.111V20.1193Z" fill="white"/>
<path d="M130.985 65.6733V51.8278H136.537C137.439 51.8278 138.217 51.986 138.871 52.3025C139.525 52.619 140.022 53.0672 140.362 53.6475C140.715 54.2144 140.892 54.8869 140.892 55.665C140.892 56.443 140.715 57.1286 140.362 57.722C140.022 58.3023 139.525 58.7572 138.871 59.0868C138.217 59.4033 137.439 59.5615 136.537 59.5615H131.887V65.6733H130.985ZM131.887 58.711H136.498C137.622 58.711 138.479 58.4341 139.068 57.8802C139.669 57.3264 139.97 56.588 139.97 55.665C139.97 54.7683 139.669 54.0497 139.068 53.509C138.479 52.9552 137.622 52.6783 136.498 52.6783H131.887V58.711ZM145.281 65.8711C144.574 65.8711 143.953 65.7524 143.417 65.515C142.881 65.2646 142.462 64.9217 142.161 64.4865C141.86 64.0382 141.71 63.524 141.71 62.9437C141.71 62.047 142.057 61.3285 142.75 60.7878C143.443 60.234 144.365 59.9571 145.516 59.9571C146.667 59.9571 147.687 60.2406 148.576 60.8076V59.1857C148.576 58.289 148.334 57.6231 147.851 57.188C147.367 56.7397 146.674 56.5155 145.771 56.5155C145.326 56.5155 144.862 56.588 144.378 56.7331C143.894 56.8782 143.338 57.1155 142.711 57.4451L142.338 56.6737C142.953 56.3572 143.541 56.1265 144.104 55.9814C144.666 55.8232 145.228 55.7441 145.791 55.7441C146.955 55.7441 147.851 56.0276 148.478 56.5946C149.119 57.1484 149.44 57.9594 149.44 59.0274V65.6733H148.576V64.5854C148.132 64.9941 147.635 65.3106 147.085 65.5348C146.536 65.759 145.935 65.8711 145.281 65.8711ZM142.573 62.924C142.573 63.5569 142.835 64.0778 143.358 64.4865C143.881 64.8952 144.542 65.0997 145.339 65.0997C146.033 65.0997 146.641 64.981 147.164 64.7437C147.687 64.4932 148.158 64.1436 148.576 63.6954V61.6779C148.145 61.3483 147.674 61.1043 147.164 60.946C146.654 60.7878 146.072 60.7087 145.418 60.7087C144.568 60.7087 143.881 60.9131 143.358 61.3218C142.835 61.7306 142.573 62.2646 142.573 62.924ZM156.426 65.8711C155.538 65.8711 154.727 65.6469 153.994 65.1986C153.261 64.7503 152.679 64.1436 152.248 63.3789C151.829 62.6141 151.62 61.757 151.62 60.8076C151.62 59.8582 151.829 59.001 152.248 58.2363C152.679 57.4715 153.261 56.8649 153.994 56.4166C154.727 55.9683 155.538 55.7441 156.426 55.7441C157.081 55.7441 157.734 55.8759 158.388 56.1397C159.055 56.4034 159.637 56.766 160.134 57.2275L159.545 57.9396C159.127 57.5176 158.643 57.188 158.094 56.9506C157.558 56.7001 157.001 56.5748 156.426 56.5748C155.694 56.5748 155.027 56.766 154.425 57.1484C153.836 57.5176 153.366 58.0253 153.013 58.6714C152.673 59.3044 152.503 60.0164 152.503 60.8076C152.503 61.5987 152.673 62.3174 153.013 62.9635C153.366 63.5965 153.836 64.1041 154.425 64.4865C155.027 64.8557 155.694 65.0403 156.426 65.0403C157.001 65.0403 157.558 64.915 158.094 64.6645C158.643 64.414 159.127 64.0843 159.545 63.6756L160.134 64.3876C159.637 64.8492 159.055 65.2117 158.388 65.4755C157.734 65.7393 157.081 65.8711 156.426 65.8711ZM161.956 65.6733V51.8278L162.821 51.6102V60.4713L168.274 55.9419H169.491L163.802 60.6493L169.725 65.6733H168.412L162.821 60.8867V65.6733H161.956ZM173.52 65.8711C172.814 65.8711 172.193 65.7524 171.657 65.515C171.12 65.2646 170.702 64.9217 170.401 64.4865C170.099 64.0382 169.949 63.524 169.949 62.9437C169.949 62.047 170.296 61.3285 170.99 60.7878C171.683 60.234 172.604 59.9571 173.755 59.9571C174.906 59.9571 175.927 60.2406 176.815 60.8076V59.1857C176.815 58.289 176.573 57.6231 176.091 57.188C175.606 56.7397 174.913 56.5155 174.011 56.5155C173.566 56.5155 173.102 56.588 172.618 56.7331C172.133 56.8782 171.578 57.1155 170.95 57.4451L170.578 56.6737C171.192 56.3572 171.781 56.1265 172.343 55.9814C172.906 55.8232 173.468 55.7441 174.031 55.7441C175.194 55.7441 176.091 56.0276 176.717 56.5946C177.358 57.1484 177.678 57.9594 177.678 59.0274V65.6733H176.815V64.5854C176.371 64.9941 175.874 65.3106 175.324 65.5348C174.776 65.759 174.173 65.8711 173.52 65.8711ZM170.812 62.924C170.812 63.5569 171.074 64.0778 171.597 64.4865C172.121 64.8952 172.782 65.0997 173.578 65.0997C174.271 65.0997 174.88 64.981 175.404 64.7437C175.927 64.4932 176.397 64.1436 176.815 63.6954V61.6779C176.385 61.3483 175.913 61.1043 175.404 60.946C174.894 60.7878 174.311 60.7087 173.657 60.7087C172.808 60.7087 172.121 60.9131 171.597 61.3218C171.074 61.7306 170.812 62.2646 170.812 62.924ZM184.96 69.906C184.319 69.906 183.685 69.8138 183.056 69.6291C182.43 69.4445 181.853 69.1873 181.331 68.8577L181.821 68.1457C182.396 68.4753 182.92 68.7126 183.391 68.8577C183.875 69.0028 184.378 69.0753 184.902 69.0753C185.909 69.0753 186.674 68.8313 187.196 68.3435C187.72 67.8556 187.981 67.1303 187.981 66.1678V64.5063C187.104 65.4161 185.999 65.8711 184.666 65.8711C183.777 65.8711 182.966 65.6469 182.233 65.1986C181.501 64.7503 180.918 64.1436 180.488 63.3789C180.069 62.6141 179.859 61.757 179.859 60.8076C179.859 59.8582 180.069 59.001 180.488 58.2363C180.918 57.4715 181.501 56.8649 182.233 56.4166C182.966 55.9683 183.777 55.7441 184.666 55.7441C185.28 55.7441 185.875 55.8694 186.451 56.1199C187.026 56.3572 187.536 56.6804 187.981 57.0891V55.9419H188.844V66.1282C188.844 67.3676 188.505 68.3039 187.825 68.9368C187.158 69.5829 186.203 69.906 184.96 69.906ZM184.666 65.0403C185.385 65.0403 186.033 64.8952 186.608 64.6052C187.196 64.3019 187.654 63.9063 187.981 63.4184V58.1967C187.641 57.7352 187.176 57.3529 186.588 57.0495C185.999 56.7331 185.359 56.5748 184.666 56.5748C183.933 56.5748 183.266 56.766 182.664 57.1484C182.076 57.5176 181.605 58.0253 181.253 58.6714C180.912 59.3044 180.742 60.0164 180.742 60.8076C180.742 61.5987 180.912 62.3174 181.253 62.9635C181.605 63.5965 182.076 64.1041 182.664 64.4865C183.266 64.8557 183.933 65.0403 184.666 65.0403ZM191.518 65.6733V55.9419H192.381V65.6733H191.518ZM191.951 53.7464C191.741 53.7464 191.564 53.6739 191.42 53.5288C191.276 53.3837 191.204 53.2057 191.204 52.9948C191.204 52.7838 191.276 52.6058 191.42 52.4607C191.564 52.3156 191.741 52.2432 191.951 52.2432C192.173 52.2432 192.349 52.3156 192.479 52.4607C192.623 52.6058 192.695 52.7838 192.695 52.9948C192.695 53.2057 192.623 53.3837 192.479 53.5288C192.349 53.6739 192.173 53.7464 191.951 53.7464ZM195.043 65.6733V55.9419H195.906V57.3067C196.691 56.265 197.758 55.7441 199.105 55.7441C199.836 55.7441 200.478 55.9023 201.027 56.2188C201.589 56.5221 202.02 56.9573 202.322 57.5242C202.636 58.078 202.793 58.7241 202.793 59.4626V65.6733H201.93V59.6999C201.93 58.7241 201.661 57.9594 201.125 57.4055C200.589 56.8386 199.85 56.555 198.909 56.555C198.254 56.555 197.666 56.7133 197.143 57.0297C196.619 57.3331 196.207 57.7747 195.906 58.355V65.6733H195.043ZM210.077 69.906C209.435 69.906 208.802 69.8138 208.174 69.6291C207.545 69.4445 206.971 69.1873 206.448 68.8577L206.938 68.1457C207.513 68.4753 208.036 68.7126 208.508 68.8577C208.991 69.0028 209.495 69.0753 210.018 69.0753C211.025 69.0753 211.789 68.8313 212.313 68.3435C212.836 67.8556 213.098 67.1303 213.098 66.1678V64.5063C212.222 65.4161 211.116 65.8711 209.783 65.8711C208.893 65.8711 208.082 65.6469 207.349 65.1986C206.617 64.7503 206.036 64.1436 205.603 63.3789C205.185 62.6141 204.977 61.757 204.977 60.8076C204.977 59.8582 205.185 59.001 205.603 58.2363C206.036 57.4715 206.617 56.8649 207.349 56.4166C208.082 55.9683 208.893 55.7441 209.783 55.7441C210.398 55.7441 210.992 55.8694 211.567 56.1199C212.143 56.3572 212.654 56.6804 213.098 57.0891V55.9419H213.961V66.1282C213.961 67.3676 213.621 68.3039 212.94 68.9368C212.274 69.5829 211.319 69.906 210.077 69.906ZM209.783 65.0403C210.502 65.0403 211.149 64.8952 211.725 64.6052C212.313 64.3019 212.77 63.9063 213.098 63.4184V58.1967C212.758 57.7352 212.294 57.3529 211.705 57.0495C211.116 56.7331 210.476 56.5748 209.783 56.5748C209.05 56.5748 208.382 56.766 207.781 57.1484C207.193 57.5176 206.722 58.0253 206.368 58.6714C206.028 59.3044 205.859 60.0164 205.859 60.8076C205.859 61.5987 206.028 62.3174 206.368 62.9635C206.722 63.5965 207.193 64.1041 207.781 64.4865C208.382 64.8557 209.05 65.0403 209.783 65.0403ZM225.516 65.8908C224.417 65.8908 223.39 65.6666 222.435 65.2184C221.48 64.7568 220.644 64.0976 219.925 63.2404L220.631 62.647C221.284 63.4251 222.024 64.0185 222.847 64.4272C223.684 64.8359 224.575 65.0403 225.516 65.0403C226.301 65.0403 227.001 64.9019 227.616 64.625C228.23 64.3481 228.713 63.9723 229.067 63.4976C229.42 63.0097 229.596 62.4624 229.596 61.8559C229.596 61.0516 229.321 60.4384 228.773 60.0164C228.236 59.5813 227.327 59.2582 226.046 59.0472L224.379 58.7703C223.005 58.5461 221.998 58.1572 221.356 57.6033C220.716 57.0495 220.395 56.2913 220.395 55.3287C220.395 54.5903 220.585 53.9442 220.964 53.3904C221.356 52.8365 221.9 52.4014 222.593 52.0849C223.286 51.7685 224.077 51.6102 224.967 51.6102C225.868 51.6102 226.771 51.7685 227.674 52.0849C228.577 52.3883 229.433 52.8432 230.244 53.4497L229.694 54.2013C228.151 53.041 226.575 52.4607 224.967 52.4607C224.261 52.4607 223.632 52.5794 223.084 52.8168C222.533 53.0541 222.103 53.3904 221.788 53.8255C221.474 54.2475 221.318 54.7353 221.318 55.2892C221.318 56.0144 221.56 56.5815 222.043 56.9902C222.527 57.3858 223.338 57.6758 224.477 57.8605L226.144 58.1374C227.7 58.3879 228.819 58.8099 229.498 59.4033C230.178 59.9835 230.518 60.8207 230.518 61.9152C230.518 62.68 230.302 63.3657 229.872 63.9723C229.439 64.5656 228.845 65.0337 228.086 65.3766C227.34 65.7195 226.483 65.8908 225.516 65.8908ZM231.187 65.6733L236.916 51.8278H238.033L243.742 65.6733H242.761L240.858 60.9856H234.051L232.128 65.6733H231.187ZM234.384 60.1746H240.525L237.465 52.6783L234.384 60.1746Z" fill="white"/>
</svg>
