<svg width="114" height="32" viewBox="0 0 114 32" fill="none" xmlns="http://www.w3.org/2000/svg">
<g clip-path="url(#clip0_72_394)">
<path d="M12.2636 20.4432C10.794 20.4432 9.42808 20.1889 8.16574 19.6803C6.90342 19.1529 5.79184 18.4277 4.83097 17.5046C3.8701 16.5628 3.11648 15.4796 2.57011 14.2552C2.04257 13.0119 1.77881 11.6745 1.77881 10.2428C1.77881 8.81114 2.04257 7.4831 2.57011 6.25869C3.11648 5.01543 3.86069 3.93228 4.80271 3.00925C5.74473 2.06738 6.8469 1.34214 8.10922 0.833529C9.39035 0.306082 10.7563 0.0423584 12.207 0.0423584C13.8462 0.0423584 15.3911 0.372012 16.8418 1.03132C18.2925 1.6718 19.4889 2.57599 20.4309 3.7439L17.5766 6.37172C16.8983 5.52404 16.0976 4.88356 15.1744 4.45031C14.2512 4.01705 13.2621 3.80042 12.207 3.80042C11.3216 3.80042 10.502 3.96995 9.74834 4.30903C8.9947 4.62926 8.33531 5.08136 7.77009 5.66532C7.20487 6.23044 6.76212 6.90859 6.44183 7.69976C6.14038 8.47206 5.98966 9.31975 5.98966 10.2428C5.98966 11.1659 6.14981 12.0229 6.4701 12.8141C6.79038 13.6053 7.23314 14.2928 7.79835 14.8768C8.38243 15.4419 9.05122 15.894 9.80486 16.2331C10.5773 16.5533 11.4157 16.7134 12.3201 16.7134C13.2621 16.7134 14.1099 16.5439 14.8635 16.2048C15.6172 15.8469 16.2483 15.3572 16.757 14.7355C17.2846 14.095 17.6331 13.3792 17.8027 12.5881H16.2201V9.02779H22.1831V10.2711C22.1831 11.7404 21.9287 13.0967 21.42 14.3399C20.9302 15.5643 20.2425 16.6381 19.357 17.5611C18.4715 18.4653 17.4259 19.1717 16.2201 19.6803C15.0142 20.1889 13.6955 20.4432 12.2636 20.4432ZM24.9793 20.1324V0.353175H29.0772V20.1324H24.9793ZM32.6793 20.1324V0.353175H36.7771V8.32139H45.8771V0.353175H49.9749V20.1324H45.8771V12.0229H36.7771V20.1324H32.6793ZM53.5713 20.1324V0.353175H62.8691C64.2068 0.353175 65.3749 0.579223 66.3734 1.03132C67.372 1.48342 68.1539 2.12389 68.7191 2.95273C69.2843 3.76274 69.5669 4.70461 69.5669 5.77834C69.5669 6.64486 69.3408 7.44545 68.8886 8.18011C68.4553 8.89591 67.8618 9.47989 67.1082 9.93199C68.0691 10.3841 68.8321 10.9963 69.3973 11.7686C69.9626 12.5409 70.2452 13.4169 70.2452 14.3964C70.2452 15.5267 69.9531 16.525 69.3691 17.3916C68.8039 18.2581 67.9937 18.9363 66.9387 19.426C65.9024 19.897 64.6966 20.1324 63.3213 20.1324H53.5713ZM57.6691 8.43441H62.6148C63.5002 8.43441 64.1974 8.22723 64.7061 7.81278C65.2335 7.37954 65.4974 6.80498 65.4974 6.08916C65.4974 5.37334 65.2335 4.80822 64.7061 4.39379C64.1974 3.96053 63.5002 3.7439 62.6148 3.7439H57.6691V8.43441ZM57.6691 16.7417H63.0104C63.9524 16.7417 64.7061 16.5156 65.2713 16.0636C65.8365 15.5926 66.1191 14.971 66.1191 14.1987C66.1191 13.4075 65.8365 12.7858 65.2713 12.3338C64.7061 11.8628 63.9524 11.6273 63.0104 11.6273H57.6691V16.7417ZM82.5283 20.4432C81.0587 20.4432 79.693 20.1889 78.4305 19.6803C77.1686 19.1529 76.0566 18.4277 75.0957 17.5046C74.1539 16.5628 73.41 15.4796 72.8631 14.2552C72.336 13.0119 72.0718 11.6745 72.0718 10.2428C72.0718 8.81114 72.336 7.4831 72.8631 6.25869C73.41 5.01543 74.1539 3.93228 75.0957 3.00925C76.0566 2.06738 77.1686 1.34214 78.4305 0.833529C79.693 0.306082 81.0587 0.0423584 82.5283 0.0423584C83.9978 0.0423584 85.3643 0.306082 86.6261 0.833529C87.9077 1.34214 89.0191 2.06738 89.9609 3.00925C90.9217 3.93228 91.6664 5.01543 92.1935 6.25869C92.7212 7.4831 92.9848 8.81114 92.9848 10.2428C92.9848 11.6745 92.7212 13.0119 92.1935 14.2552C91.6664 15.4796 90.9217 16.5628 89.9609 17.5046C89.0191 18.4277 87.9077 19.1529 86.6261 19.6803C85.3643 20.1889 83.9978 20.4432 82.5283 20.4432ZM82.5283 16.6852C83.4326 16.6852 84.2621 16.525 85.0152 16.2048C85.7691 15.8658 86.4283 15.4137 86.9935 14.8485C87.5587 14.2646 88.0017 13.577 88.3217 12.7858C88.6425 11.9947 88.8022 11.147 88.8022 10.2428C88.8022 9.31975 88.6425 8.47206 88.3217 7.69976C88.0017 6.90859 87.5587 6.23044 86.9935 5.66532C86.4283 5.08136 85.7691 4.62926 85.0152 4.30903C84.2621 3.96995 83.4326 3.80042 82.5283 3.80042C81.643 3.80042 80.8235 3.96995 80.0696 4.30903C79.3165 4.62926 78.6566 5.08136 78.0913 5.66532C77.5261 6.23044 77.0838 6.90859 76.7631 7.69976C76.443 8.47206 76.2827 9.31035 76.2827 10.2145C76.2827 11.1376 76.443 11.9947 76.7631 12.7858C77.0838 13.577 77.5261 14.2646 78.0913 14.8485C78.6566 15.4137 79.3165 15.8658 80.0696 16.2048C80.8235 16.525 81.643 16.6852 82.5283 16.6852ZM95.8243 20.1324V0.353175H105.489C106.828 0.353175 108.005 0.616898 109.022 1.14435C110.059 1.65296 110.859 2.36877 111.424 3.29181C112.009 4.21484 112.3 5.27915 112.3 6.48474C112.3 7.74687 111.952 8.85825 111.255 9.81896C110.558 10.7797 109.625 11.4955 108.457 11.9664L112.837 20.1324H108.259L104.387 12.5598H99.9221V20.1324H95.8243ZM99.9221 9.19733H105.122C106.045 9.19733 106.78 8.95242 107.326 8.46267C107.892 7.97292 108.174 7.33243 108.174 6.54126C108.174 5.75009 107.892 5.10961 107.326 4.61984C106.78 4.13007 106.045 3.88519 105.122 3.88519H99.9221V9.19733Z" fill="black"/>
<path d="M61.1421 30.0221V23.6927H63.7014C64.1174 23.6927 64.4761 23.7651 64.7776 23.9097C65.079 24.0544 65.3081 24.2593 65.4649 24.5246C65.6276 24.7838 65.709 25.0912 65.709 25.4469C65.709 25.8025 65.6276 26.116 65.4649 26.3872C65.3081 26.6525 65.079 26.8604 64.7776 27.0111C64.4761 27.1558 64.1174 27.2281 63.7014 27.2281H61.5581V30.0221H61.1421ZM61.5581 26.8393H63.6833C64.2018 26.8393 64.5967 26.7127 64.868 26.4596C65.1453 26.2064 65.284 25.8688 65.284 25.4469C65.284 25.0369 65.1453 24.7085 64.868 24.4613C64.5967 24.2081 64.2018 24.0815 63.6833 24.0815H61.5581V26.8393ZM67.7321 30.1125C67.4065 30.1125 67.1202 30.0583 66.8729 29.9497C66.6257 29.8352 66.4329 29.6785 66.2942 29.4796C66.1555 29.2746 66.0862 29.0395 66.0862 28.7743C66.0862 28.3644 66.2459 28.0359 66.5655 27.7887C66.885 27.5355 67.3101 27.409 67.8406 27.409C68.3711 27.409 68.8414 27.5386 69.2514 27.7978V27.0563C69.2514 26.6464 69.1398 26.342 68.9168 26.1431C68.6937 25.9382 68.3742 25.8357 67.9582 25.8357C67.7532 25.8357 67.5391 25.8688 67.3161 25.9351C67.093 26.0015 66.8368 26.11 66.5474 26.2606L66.3756 25.908C66.6589 25.7633 66.9302 25.6579 67.1895 25.5915C67.4487 25.5192 67.708 25.483 67.9672 25.483C68.5038 25.483 68.9168 25.6127 69.2062 25.8718C69.5016 26.125 69.6493 26.4957 69.6493 26.984V30.0221H69.2514V29.5248C69.0464 29.7116 68.8173 29.8563 68.5641 29.9588C68.3109 30.0613 68.0335 30.1125 67.7321 30.1125ZM66.4841 28.7653C66.4841 29.0546 66.6047 29.2927 66.8458 29.4796C67.087 29.6664 67.3915 29.7599 67.7592 29.7599C68.0788 29.7599 68.3591 29.7056 68.6002 29.5971C68.8414 29.4826 69.0584 29.3228 69.2514 29.1179V28.1956C69.0524 28.0449 68.8354 27.9334 68.6002 27.8611C68.3651 27.7887 68.0968 27.7526 67.7954 27.7526C67.4035 27.7526 67.087 27.846 66.8458 28.0329C66.6047 28.2197 66.4841 28.4638 66.4841 28.7653ZM72.87 30.1125C72.4602 30.1125 72.0865 30.01 71.7488 29.8051C71.411 29.6001 71.1427 29.3228 70.9438 28.9732C70.7508 28.6236 70.6544 28.2318 70.6544 27.7978C70.6544 27.3638 70.7508 26.9719 70.9438 26.6223C71.1427 26.2727 71.411 25.9954 71.7488 25.7905C72.0865 25.5855 72.4602 25.483 72.87 25.483C73.1717 25.483 73.4727 25.5433 73.7744 25.6639C74.0817 25.7844 74.3502 25.9502 74.5791 26.1612L74.3078 26.4867C74.1149 26.2938 73.8916 26.1431 73.6387 26.0346C73.3914 25.9201 73.135 25.8628 72.87 25.8628C72.5323 25.8628 72.225 25.9502 71.9473 26.125C71.676 26.2938 71.4591 26.5259 71.2965 26.8212C71.1397 27.1106 71.0613 27.4361 71.0613 27.7978C71.0613 28.1594 71.1397 28.488 71.2965 28.7833C71.4591 29.0727 71.676 29.3047 71.9473 29.4796C72.225 29.6483 72.5323 29.7327 72.87 29.7327C73.135 29.7327 73.3914 29.6754 73.6387 29.5609C73.8916 29.4464 74.1149 29.2957 74.3078 29.1088L74.5791 29.4344C74.3502 29.6454 74.0817 29.8111 73.7744 29.9317C73.4727 30.0522 73.1717 30.1125 72.87 30.1125ZM75.4191 30.0221V23.6927L75.8176 23.5933V27.6441L78.3314 25.5734H78.8924L76.2698 27.7254L79.0005 30.0221H78.395L75.8176 27.8339V30.0221H75.4191ZM80.7498 30.1125C80.4241 30.1125 80.138 30.0583 79.8907 29.9497C79.6434 29.8352 79.4505 29.6785 79.3121 29.4796C79.1729 29.2746 79.1036 29.0395 79.1036 28.7743C79.1036 28.3644 79.2633 28.0359 79.5834 27.7887C79.9027 27.5355 80.3273 27.409 80.8579 27.409C81.3885 27.409 81.8591 27.5386 82.2688 27.7978V27.0563C82.2688 26.6464 82.1572 26.342 81.9347 26.1431C81.7114 25.9382 81.392 25.8357 80.9759 25.8357C80.771 25.8357 80.5569 25.8688 80.3337 25.9351C80.1104 26.0015 79.8547 26.11 79.565 26.2606L79.3933 25.908C79.6766 25.7633 79.9479 25.6579 80.2072 25.5915C80.4665 25.5192 80.7258 25.483 80.9851 25.483C81.5213 25.483 81.9347 25.6127 82.2236 25.8718C82.5189 26.125 82.6666 26.4957 82.6666 26.984V30.0221H82.2688V29.5248C82.064 29.7116 81.835 29.8563 81.5814 29.9588C81.3285 30.0613 81.0508 30.1125 80.7498 30.1125ZM79.5014 28.7653C79.5014 29.0546 79.6222 29.2927 79.8631 29.4796C80.1048 29.6664 80.4093 29.7599 80.7767 29.7599C81.096 29.7599 81.3765 29.7056 81.6181 29.5971C81.8591 29.4826 82.076 29.3228 82.2688 29.1179V28.1956C82.0703 28.0449 81.8527 27.9334 81.6181 27.8611C81.3829 27.7887 81.1144 27.7526 80.8127 27.7526C80.4213 27.7526 80.1048 27.846 79.8631 28.0329C79.6222 28.2197 79.5014 28.4638 79.5014 28.7653ZM86.0233 31.9571C85.728 31.9571 85.4355 31.9149 85.1458 31.8305C84.8568 31.7461 84.5912 31.6285 84.3502 31.4778L84.5763 31.1523C84.8413 31.303 85.0829 31.4115 85.2998 31.4778C85.5231 31.5442 85.7548 31.5773 85.9964 31.5773C86.4606 31.5773 86.8132 31.4658 87.0541 31.2427C87.2957 31.0197 87.4158 30.6881 87.4158 30.2481V29.4886C87.0117 29.9045 86.5023 30.1125 85.8876 30.1125C85.4779 30.1125 85.1041 30.01 84.7664 29.8051C84.4287 29.6001 84.1602 29.3228 83.9617 28.9732C83.7688 28.6236 83.672 28.2318 83.672 27.7978C83.672 27.3638 83.7688 26.9719 83.9617 26.6223C84.1602 26.2727 84.4287 25.9954 84.7664 25.7905C85.1041 25.5855 85.4779 25.483 85.8876 25.483C86.1709 25.483 86.4451 25.5403 86.7107 25.6548C86.9757 25.7633 87.2109 25.911 87.4158 26.0979V25.5734H87.8136V30.23C87.8136 30.7967 87.6575 31.2247 87.3438 31.514C87.0364 31.8093 86.5963 31.9571 86.0233 31.9571ZM85.8876 29.7327C86.219 29.7327 86.5179 29.6664 86.7828 29.5338C87.0541 29.3952 87.2653 29.2143 87.4158 28.9913V26.6042C87.259 26.3932 87.0449 26.2185 86.7736 26.0798C86.5023 25.9351 86.207 25.8628 85.8876 25.8628C85.5499 25.8628 85.2426 25.9502 84.9649 26.125C84.6936 26.2938 84.4767 26.5259 84.3142 26.8212C84.1574 27.1106 84.0789 27.4361 84.0789 27.7978C84.0789 28.1594 84.1574 28.488 84.3142 28.7833C84.4767 29.0727 84.6936 29.3047 84.9649 29.4796C85.2426 29.6483 85.5499 29.7327 85.8876 29.7327ZM89.0465 30.0221V25.5734H89.4442V30.0221H89.0465ZM89.2457 24.5698C89.1489 24.5698 89.0677 24.5367 89.0013 24.4703C88.9348 24.404 88.9016 24.3226 88.9016 24.2262C88.9016 24.1298 88.9348 24.0484 89.0013 23.9821C89.0677 23.9157 89.1489 23.8826 89.2457 23.8826C89.3482 23.8826 89.4294 23.9157 89.4895 23.9821C89.5559 24.0484 89.5891 24.1298 89.5891 24.2262C89.5891 24.3226 89.5559 24.404 89.4895 24.4703C89.4294 24.5367 89.3482 24.5698 89.2457 24.5698ZM90.6715 30.0221V25.5734H91.0692V26.1973C91.431 25.7212 91.9227 25.483 92.5437 25.483C92.8808 25.483 93.1768 25.5554 93.4297 25.7C93.689 25.8387 93.8875 26.0376 94.0267 26.2968C94.1716 26.55 94.2436 26.8453 94.2436 27.1829V30.0221H93.8459V27.2914C93.8459 26.8453 93.7222 26.4957 93.4749 26.2426C93.2277 25.9834 92.8871 25.8537 92.4533 25.8537C92.1516 25.8537 91.8803 25.9261 91.6394 26.0708C91.3978 26.2094 91.2077 26.4113 91.0692 26.6766V30.0221H90.6715ZM97.6017 31.9571C97.3057 31.9571 97.0139 31.9149 96.7242 31.8305C96.4345 31.7461 96.1696 31.6285 95.9287 31.4778L96.1548 31.1523C96.4197 31.303 96.6606 31.4115 96.8782 31.4778C97.1008 31.5442 97.3332 31.5773 97.5742 31.5773C98.0383 31.5773 98.3909 31.4658 98.6325 31.2427C98.8735 31.0197 98.9943 30.6881 98.9943 30.2481V29.4886C98.5901 29.9045 98.0807 30.1125 97.4661 30.1125C97.0556 30.1125 96.6818 30.01 96.3441 29.8051C96.0064 29.6001 95.7386 29.3228 95.5394 28.9732C95.3465 28.6236 95.2504 28.2318 95.2504 27.7978C95.2504 27.3638 95.3465 26.9719 95.5394 26.6223C95.7386 26.2727 96.0064 25.9954 96.3441 25.7905C96.6818 25.5855 97.0556 25.483 97.4661 25.483C97.7494 25.483 98.0235 25.5403 98.2885 25.6548C98.5541 25.7633 98.7894 25.911 98.9943 26.0979V25.5734H99.392V30.23C99.392 30.7967 99.2352 31.2247 98.9215 31.514C98.6142 31.8093 98.174 31.9571 97.6017 31.9571ZM97.4661 29.7327C97.7974 29.7327 98.0956 29.6664 98.3612 29.5338C98.6325 29.3952 98.8431 29.2143 98.9943 28.9913V26.6042C98.8374 26.3932 98.6233 26.2185 98.352 26.0798C98.0807 25.9351 97.7854 25.8628 97.4661 25.8628C97.1283 25.8628 96.8203 25.9502 96.5433 26.125C96.272 26.2938 96.0551 26.5259 95.8919 26.8212C95.7351 27.1106 95.6574 27.4361 95.6574 27.7978C95.6574 28.1594 95.7351 28.488 95.8919 28.7833C96.0551 29.0727 96.272 29.3047 96.5433 29.4796C96.8203 29.6483 97.1283 29.7327 97.4661 29.7327ZM104.718 30.1215C104.212 30.1215 103.739 30.019 103.298 29.8141C102.858 29.6031 102.472 29.3018 102.141 28.9099L102.467 28.6387C102.768 28.9943 103.109 29.2656 103.488 29.4524C103.874 29.6393 104.285 29.7327 104.718 29.7327C105.08 29.7327 105.403 29.6694 105.686 29.5429C105.97 29.4163 106.192 29.2445 106.355 29.0275C106.518 28.8045 106.599 28.5542 106.599 28.277C106.599 27.9093 106.473 27.629 106.22 27.4361C105.973 27.2372 105.554 27.0895 104.963 26.993L104.194 26.8664C103.561 26.7639 103.097 26.5861 102.801 26.333C102.506 26.0798 102.358 25.7332 102.358 25.2931C102.358 24.9556 102.446 24.6602 102.62 24.407C102.801 24.1539 103.052 23.9549 103.371 23.8103C103.69 23.6656 104.055 23.5933 104.466 23.5933C104.881 23.5933 105.297 23.6656 105.713 23.8103C106.129 23.9489 106.524 24.1569 106.898 24.4342L106.644 24.7778C105.933 24.2473 105.207 23.9821 104.466 23.9821C104.14 23.9821 103.85 24.0363 103.597 24.1448C103.344 24.2533 103.145 24.407 103 24.606C102.855 24.7989 102.783 25.0219 102.783 25.2751C102.783 25.6066 102.895 25.8658 103.118 26.0527C103.341 26.2335 103.715 26.3661 104.239 26.4505L105.008 26.5771C105.725 26.6916 106.241 26.8845 106.554 27.1558C106.868 27.421 107.025 27.8038 107.025 28.3041C107.025 28.6537 106.925 28.9672 106.726 29.2445C106.527 29.5157 106.253 29.7297 105.903 29.8865C105.559 30.0432 105.164 30.1215 104.718 30.1215ZM107.333 30.0221L109.974 23.6927H110.489L113.12 30.0221H112.668L111.791 27.8791H108.653L107.766 30.0221H107.333ZM108.806 27.5084H111.637L110.227 24.0815L108.806 27.5084Z" fill="black"/>
</g>
<defs>
<clipPath id="clip0_72_394">
<rect width="112.478" height="32" fill="white" transform="translate(0.76123)"/>
</clipPath>
</defs>
</svg>
