<svg width="705" height="705" viewBox="0 0 705 705" fill="none" xmlns="http://www.w3.org/2000/svg">
<path d="M220.549 678.124C264.139 695.687 311.306 704.468 362.051 704.468C411.497 704.468 457.036 695.687 498.674 678.124C540.313 660.561 576.42 636.168 606.997 604.945C637.574 573.071 661.322 535.993 678.236 493.713C695.802 450.781 704.585 403.947 704.585 353.21V310.278H498.674V433.219H553.324C547.468 460.539 535.433 485.256 517.216 507.373C499.65 528.839 477.856 545.75 451.832 558.11C425.808 569.819 396.532 575.673 364.003 575.673C332.775 575.673 303.823 570.143 277.15 559.086C251.125 547.378 228.031 531.766 207.862 512.252C188.345 492.086 173.056 468.344 161.996 441.024C150.936 413.704 145.406 384.108 145.406 352.234C145.406 320.36 150.611 291.088 161.02 264.419C172.08 237.099 187.369 213.682 206.886 194.168C226.404 174.003 249.174 158.391 275.198 147.333C301.222 135.625 329.523 129.77 360.1 129.77C396.532 129.77 430.687 137.251 462.567 152.212C494.446 167.173 522.096 189.289 545.517 218.561L644.08 127.819C611.552 87.4894 570.238 56.2665 520.144 34.1501C470.049 11.3834 416.701 0 360.1 0C310.005 0 262.836 9.10669 218.597 27.3201C175.008 44.883 136.948 69.9265 104.419 102.45C71.8899 134.324 46.1915 171.726 27.3246 214.658C9.10813 256.938 0 302.797 0 352.234C0 401.671 9.10813 447.854 27.3246 490.786C46.1915 533.066 72.2151 570.47 105.395 602.993C138.575 634.868 176.959 659.909 220.549 678.124Z" fill="black"/>
</svg>
